<mxfile host="app.diagrams.net" agent="Mozilla/5.0 (Macintosh; Intel Mac OS X 10_15_7) AppleWebKit/537.36 (KHTML, like Gecko) Chrome/140.0.0.0 Safari/537.36" version="28.2.4">
  <diagram name="Page-1" id="tvfyRvtNjb_A67qJrFz4">
    <mxGraphModel dx="1234" dy="721" grid="1" gridSize="10" guides="1" tooltips="1" connect="1" arrows="1" fold="1" page="1" pageScale="1" pageWidth="850" pageHeight="1100" math="0" shadow="0">
      <root>
        <mxCell id="0" />
        <mxCell id="1" parent="0" />
        <mxCell id="MD52VDrp3i1lFAHG4hau-1" value="" style="rounded=1;whiteSpace=wrap;html=1;strokeColor=#475E75;fillColor=#F5F6F7;arcSize=24;absoluteArcSize=1;imageWidth=64;imageHeight=64;strokeWidth=1.5;" parent="1" vertex="1">
          <mxGeometry x="230" y="210" width="320" height="740" as="geometry" />
        </mxCell>
        <mxCell id="MD52VDrp3i1lFAHG4hau-2" value="" style="rounded=1;whiteSpace=wrap;html=1;strokeColor=#475E75;fillColor=#ffffff;arcSize=24;absoluteArcSize=1;imageWidth=64;imageHeight=64;strokeWidth=1.5;" parent="1" vertex="1">
          <mxGeometry x="250" y="300" width="280" height="620" as="geometry" />
        </mxCell>
        <mxCell id="MD52VDrp3i1lFAHG4hau-3" value="Micrososft Azure" style="text;strokeColor=none;fillColor=none;html=1;align=center;verticalAlign=middle;whiteSpace=wrap;rounded=0;fontSize=18;fontColor=#002a86;fontStyle=0;fontFamily=Tahoma;" parent="1" vertex="1">
          <mxGeometry x="310.5" y="234" width="179" height="30" as="geometry" />
        </mxCell>
        <mxCell id="MD52VDrp3i1lFAHG4hau-4" value="" style="shape=image;verticalLabelPosition=bottom;labelBackgroundColor=default;verticalAlign=top;aspect=fixed;imageAspect=0;image=data:image/svg+xml,PHN2ZyB4bWxucz0iaHR0cDovL3d3dy53My5vcmcvMjAwMC9zdmciIHZpZXdCb3g9IjAgMCA5NiA5NiIgaGVpZ2h0PSIxNTAiIHdpZHRoPSIxNTAiPiYjeGE7ICAgIDxkZWZzPiYjeGE7ICAgICAgICA8bGluZWFyR3JhZGllbnQgZ3JhZGllbnRVbml0cz0idXNlclNwYWNlT25Vc2UiIGdyYWRpZW50VHJhbnNmb3JtPSJtYXRyaXgoMSAwIDAgLTEgMTA3NSAxNTgpIiB5Mj0iNjUuNDI2IiB5MT0iMTQ1LjMxMiIgeDI9Ii0xMDU5LjIxMyIgeDE9Ii0xMDMyLjE3MiIgaWQ9ImUzOTljMTlmLWI2OGYtNDI5ZC1iMTc2LTE4YzIxMTdmZjczYyI+JiN4YTsgICAgICAgICAgICA8c3RvcCBzdG9wLWNvbG9yPSIjMTE0YThiIiBvZmZzZXQ9IjAiLz4mI3hhOyAgICAgICAgICAgIDxzdG9wIHN0b3AtY29sb3I9IiMwNjY5YmMiIG9mZnNldD0iMSIvPiYjeGE7ICAgICAgICA8L2xpbmVhckdyYWRpZW50PiYjeGE7ICAgICAgICA8bGluZWFyR3JhZGllbnQgZ3JhZGllbnRVbml0cz0idXNlclNwYWNlT25Vc2UiIGdyYWRpZW50VHJhbnNmb3JtPSJtYXRyaXgoMSAwIDAgLTEgMTA3NSAxNTgpIiB5Mj0iMTA1Ljk2OCIgeTE9IjEwOC4wODMiIHgyPSItMTAyOS45OCIgeDE9Ii0xMDIzLjcyNSIgaWQ9ImFjMmE2ZmMyLWNhNDgtNDMyNy05YTNjLWQ0ZGNjMzI1NmUxNSI+JiN4YTsgICAgICAgICAgICA8c3RvcCBzdG9wLW9wYWNpdHk9Ii4zIiBvZmZzZXQ9IjAiLz4mI3hhOyAgICAgICAgICAgIDxzdG9wIHN0b3Atb3BhY2l0eT0iLjIiIG9mZnNldD0iLjA3MSIvPiYjeGE7ICAgICAgICAgICAgPHN0b3Agc3RvcC1vcGFjaXR5PSIuMSIgb2Zmc2V0PSIuMzIxIi8+JiN4YTsgICAgICAgICAgICA8c3RvcCBzdG9wLW9wYWNpdHk9Ii4wNSIgb2Zmc2V0PSIuNjIzIi8+JiN4YTsgICAgICAgICAgICA8c3RvcCBzdG9wLW9wYWNpdHk9IjAiIG9mZnNldD0iMSIvPiYjeGE7ICAgICAgICA8L2xpbmVhckdyYWRpZW50PiYjeGE7ICAgICAgICA8bGluZWFyR3JhZGllbnQgZ3JhZGllbnRVbml0cz0idXNlclNwYWNlT25Vc2UiIGdyYWRpZW50VHJhbnNmb3JtPSJtYXRyaXgoMSAwIDAgLTEgMTA3NSAxNTgpIiB5Mj0iNjguNTYxIiB5MT0iMTQ3LjY0MiIgeDI9Ii05OTcuNDgyIiB4MT0iLTEwMjcuMTY1IiBpZD0iYTdmZWU5NzAtYTc4NC00YmIxLWFmOGQtNjNkMThlNWY3ZGI5Ij4mI3hhOyAgICAgICAgICAgIDxzdG9wIHN0b3AtY29sb3I9IiMzY2NiZjQiIG9mZnNldD0iMCIvPiYjeGE7ICAgICAgICAgICAgPHN0b3Agc3RvcC1jb2xvcj0iIzI4OTJkZiIgb2Zmc2V0PSIxIi8+JiN4YTsgICAgICAgIDwvbGluZWFyR3JhZGllbnQ+JiN4YTsgICAgPC9kZWZzPiYjeGE7ICAgIDxwYXRoIGQ9Ik0zMy4zMzggNi41NDRoMjYuMDM4bC0yNy4wMyA4MC4wODdhNC4xNTIgNC4xNTIgMCAwIDEtMy45MzMgMi44MjRIOC4xNDlhNC4xNDUgNC4xNDUgMCAwIDEtMy45MjgtNS40N0wyOS40MDQgOS4zNjhhNC4xNTIgNC4xNTIgMCAwIDEgMy45MzQtMi44MjV6IiBmaWxsPSJ1cmwoI2UzOTljMTlmLWI2OGYtNDI5ZC1iMTc2LTE4YzIxMTdmZjczYykiLz4mI3hhOyAgICA8cGF0aCBkPSJNNzEuMTc1IDYwLjI2MWgtNDEuMjlhMS45MTEgMS45MTEgMCAwIDAtMS4zMDUgMy4zMDlsMjYuNTMyIDI0Ljc2NGE0LjE3MSA0LjE3MSAwIDAgMCAyLjg0NiAxLjEyMWgyMy4zOHoiIGZpbGw9IiMwMDc4ZDQiLz4mI3hhOyAgICA8cGF0aCBkPSJNMzMuMzM4IDYuNTQ0YTQuMTE4IDQuMTE4IDAgMCAwLTMuOTQzIDIuODc5TDQuMjUyIDgzLjkxN2E0LjE0IDQuMTQgMCAwIDAgMy45MDggNS41MzhoMjAuNzg3YTQuNDQzIDQuNDQzIDAgMCAwIDMuNDEtMi45bDUuMDE0LTE0Ljc3NyAxNy45MSAxNi43MDVhNC4yMzcgNC4yMzcgMCAwIDAgMi42NjYuOTcySDgxLjI0TDcxLjAyNCA2MC4yNjFsLTI5Ljc4MS4wMDdMNTkuNDcgNi41NDR6IiBmaWxsPSJ1cmwoI2FjMmE2ZmMyLWNhNDgtNDMyNy05YTNjLWQ0ZGNjMzI1NmUxNSkiLz4mI3hhOyAgICA8cGF0aCBkPSJNNjYuNTk1IDkuMzY0YTQuMTQ1IDQuMTQ1IDAgMCAwLTMuOTI4LTIuODJIMzMuNjQ4YTQuMTQ2IDQuMTQ2IDAgMCAxIDMuOTI4IDIuODJsMjUuMTg0IDc0LjYyYTQuMTQ2IDQuMTQ2IDAgMCAxLTMuOTI4IDUuNDcyaDI5LjAyYTQuMTQ2IDQuMTQ2IDAgMCAwIDMuOTI3LTUuNDcyeiIgZmlsbD0idXJsKCNhN2ZlZTk3MC1hNzg0LTRiYjEtYWY4ZC02M2QxOGU1ZjdkYjkpIi8+JiN4YTs8L3N2Zz4=;" parent="1" vertex="1">
          <mxGeometry x="250" y="226" width="34" height="34" as="geometry" />
        </mxCell>
        <mxCell id="MD52VDrp3i1lFAHG4hau-5" value="" style="group" parent="1" vertex="1" connectable="0">
          <mxGeometry x="270" y="320" width="240" height="303" as="geometry" />
        </mxCell>
        <mxCell id="MD52VDrp3i1lFAHG4hau-6" value="" style="rounded=1;whiteSpace=wrap;html=1;strokeColor=#0070F2;fillColor=#EBF8FF;arcSize=24;absoluteArcSize=1;imageWidth=64;imageHeight=64;strokeWidth=1.5;" parent="MD52VDrp3i1lFAHG4hau-5" vertex="1">
          <mxGeometry width="235" height="303" as="geometry" />
        </mxCell>
        <mxCell id="MD52VDrp3i1lFAHG4hau-7" value="&lt;div&gt;&lt;span style=&quot;background-color: transparent; color: light-dark(rgb(0, 0, 0), rgb(255, 255, 255));&quot;&gt;&lt;b&gt;PR3 - PRD&lt;/b&gt;&lt;/span&gt;&lt;/div&gt;&lt;div&gt;&lt;span style=&quot;font-size: 10px; background-color: transparent; color: light-dark(rgb(0, 0, 0), rgb(255, 255, 255));&quot;&gt;app-pr3.frosta.dom&lt;/span&gt;&lt;/div&gt;" style="rounded=1;whiteSpace=wrap;html=1;strokeColor=#0070F2;strokeWidth=1.5;arcSize=16;fillColor=#ffffff;perimeterSpacing=0;absoluteArcSize=1;" parent="MD52VDrp3i1lFAHG4hau-5" vertex="1">
          <mxGeometry x="19.61999999999989" y="70" width="195.75" height="60" as="geometry" />
        </mxCell>
        <mxCell id="MD52VDrp3i1lFAHG4hau-8" value="&lt;div&gt;&lt;span style=&quot;background-color: transparent; color: light-dark(rgb(0, 0, 0), rgb(255, 255, 255));&quot;&gt;&lt;b&gt;XS5 - TEST&lt;/b&gt;&lt;/span&gt;&lt;/div&gt;&lt;div&gt;&lt;span style=&quot;background-color: transparent; color: light-dark(rgb(0, 0, 0), rgb(255, 255, 255)); font-size: 10px;&quot;&gt;app-xs5.frosta.com&lt;/span&gt;&lt;/div&gt;" style="rounded=1;whiteSpace=wrap;html=1;strokeColor=#0070F2;strokeWidth=1.5;arcSize=16;fillColor=#ffffff;perimeterSpacing=0;absoluteArcSize=1;" parent="MD52VDrp3i1lFAHG4hau-5" vertex="1">
          <mxGeometry x="19.620000000000005" y="143" width="195.75" height="60" as="geometry" />
        </mxCell>
        <mxCell id="MD52VDrp3i1lFAHG4hau-9" value="S/4HANA" style="image;image=img/lib/sap/SAP_Logo.svg;editableCssRules=.*;verticalLabelPosition=middle;labelBackgroundColor=none;verticalAlign=middle;imageAspect=0;labelPosition=right;align=left;fontSize=16;fontStyle=1;spacingLeft=0;fontColor=#002A86;spacing=0;" parent="MD52VDrp3i1lFAHG4hau-5" vertex="1">
          <mxGeometry x="19.629999999999995" y="20" width="47" height="24.14" as="geometry" />
        </mxCell>
        <mxCell id="MD52VDrp3i1lFAHG4hau-10" value="&lt;div&gt;&lt;span style=&quot;background-color: transparent; color: light-dark(rgb(0, 0, 0), rgb(255, 255, 255));&quot;&gt;&lt;b&gt;ES4 - DEV&lt;/b&gt;&lt;/span&gt;&lt;/div&gt;&lt;div&gt;&lt;span style=&quot;background-color: transparent; color: light-dark(rgb(0, 0, 0), rgb(255, 255, 255)); font-size: 10px;&quot;&gt;app-es4.frosta.com&lt;/span&gt;&lt;/div&gt;" style="rounded=1;whiteSpace=wrap;html=1;strokeColor=#0070F2;strokeWidth=1.5;arcSize=16;fillColor=#ffffff;perimeterSpacing=0;absoluteArcSize=1;" parent="MD52VDrp3i1lFAHG4hau-5" vertex="1">
          <mxGeometry x="19.629999999999995" y="220" width="195.75" height="60" as="geometry" />
        </mxCell>
        <mxCell id="MD52VDrp3i1lFAHG4hau-11" value="" style="group" parent="1" vertex="1" connectable="0">
          <mxGeometry x="270" y="680" width="260" height="220" as="geometry" />
        </mxCell>
        <mxCell id="MD52VDrp3i1lFAHG4hau-12" value="" style="rounded=1;whiteSpace=wrap;html=1;strokeColor=#0070F2;fillColor=#EBF8FF;arcSize=24;absoluteArcSize=1;imageWidth=64;imageHeight=64;strokeWidth=1.5;" parent="MD52VDrp3i1lFAHG4hau-11" vertex="1">
          <mxGeometry width="235" height="220" as="geometry" />
        </mxCell>
        <mxCell id="MD52VDrp3i1lFAHG4hau-13" value="&lt;div&gt;&lt;span style=&quot;background-color: transparent; color: light-dark(rgb(0, 0, 0), rgb(255, 255, 255));&quot;&gt;&lt;b&gt;PHR - PRD&lt;/b&gt;&lt;/span&gt;&lt;/div&gt;&lt;div&gt;&lt;span style=&quot;font-size: 10px; background-color: transparent; color: light-dark(rgb(0, 0, 0), rgb(255, 255, 255));&quot;&gt;app-phr.frosta.dom&lt;/span&gt;&lt;/div&gt;" style="rounded=1;whiteSpace=wrap;html=1;strokeColor=#0070F2;strokeWidth=1.5;arcSize=16;fillColor=#ffffff;perimeterSpacing=0;absoluteArcSize=1;" parent="MD52VDrp3i1lFAHG4hau-11" vertex="1">
          <mxGeometry x="19.61999999999989" y="70" width="195.75" height="60" as="geometry" />
        </mxCell>
        <mxCell id="MD52VDrp3i1lFAHG4hau-14" value="&lt;div&gt;&lt;span style=&quot;background-color: transparent; color: light-dark(rgb(0, 0, 0), rgb(255, 255, 255));&quot;&gt;&lt;b&gt;EHR - TEST&lt;/b&gt;&lt;/span&gt;&lt;/div&gt;&lt;div&gt;&lt;span style=&quot;background-color: transparent; color: light-dark(rgb(0, 0, 0), rgb(255, 255, 255)); font-size: 10px;&quot;&gt;app-ehr.frosta.com&lt;/span&gt;&lt;/div&gt;" style="rounded=1;whiteSpace=wrap;html=1;strokeColor=#0070F2;strokeWidth=1.5;arcSize=16;fillColor=#ffffff;perimeterSpacing=0;absoluteArcSize=1;" parent="MD52VDrp3i1lFAHG4hau-11" vertex="1">
          <mxGeometry x="19.620000000000005" y="143" width="195.75" height="60" as="geometry" />
        </mxCell>
        <mxCell id="MD52VDrp3i1lFAHG4hau-15" value="" style="group" parent="MD52VDrp3i1lFAHG4hau-11" vertex="1" connectable="0">
          <mxGeometry x="20" y="10" width="240" height="50" as="geometry" />
        </mxCell>
        <mxCell id="MD52VDrp3i1lFAHG4hau-16" value="" style="image;image=img/lib/sap/SAP_Logo.svg;editableCssRules=.*;verticalLabelPosition=middle;labelBackgroundColor=none;verticalAlign=middle;imageAspect=0;labelPosition=right;align=left;fontSize=16;fontStyle=1;spacingLeft=0;fontColor=#002A86;spacing=0;" parent="MD52VDrp3i1lFAHG4hau-15" vertex="1">
          <mxGeometry y="10" width="57" height="29" as="geometry" />
        </mxCell>
        <mxCell id="MD52VDrp3i1lFAHG4hau-17" value="&lt;font face=&quot;arial&quot;&gt;&lt;span style=&quot;font-size: 16px;&quot;&gt;&lt;b&gt;Human&amp;nbsp;&lt;/b&gt;&lt;/span&gt;&lt;/font&gt;&lt;b style=&quot;font-size: 16px; font-family: arial; background-color: transparent; color: light-dark(rgb(8, 42, 134), rgb(188, 202, 216));&quot;&gt;Capital&lt;/b&gt;&lt;div&gt;&lt;b style=&quot;font-size: 16px; font-family: arial; background-color: transparent; color: light-dark(rgb(8, 42, 134), rgb(188, 202, 216));&quot;&gt;Management&lt;/b&gt;&lt;/div&gt;" style="text;html=1;align=left;verticalAlign=middle;resizable=0;points=[[0,0.5,0,0,0],[0.5,0,0,0,0],[0.5,1,0,0,0],[1,0.5,0,0,0]];autosize=1;strokeColor=none;fillColor=none;fontSize=12;fontColor=light-dark(#082a86, #bccad8);fontFamily=Helvetica;container=0;" parent="MD52VDrp3i1lFAHG4hau-15" vertex="1">
          <mxGeometry x="60" width="140" height="50" as="geometry" />
        </mxCell>
        <mxCell id="MD52VDrp3i1lFAHG4hau-18" style="edgeStyle=orthogonalEdgeStyle;rounded=0;orthogonalLoop=1;jettySize=auto;html=1;fontSize=18;strokeColor=#475E75;fontFamily=Helvetica;fontColor=default;targetPerimeterSpacing=15;endSize=4;startSize=4;endArrow=blockThin;endFill=1;strokeWidth=1.5;startArrow=blockThin;startFill=1;exitX=0.5;exitY=1;exitDx=0;exitDy=0;entryX=0.5;entryY=0;entryDx=0;entryDy=0;" parent="1" source="MD52VDrp3i1lFAHG4hau-6" target="MD52VDrp3i1lFAHG4hau-12" edge="1">
          <mxGeometry relative="1" as="geometry">
            <mxPoint x="430" y="640" as="targetPoint" />
            <mxPoint x="310" y="620" as="sourcePoint" />
            <Array as="points">
              <mxPoint x="387" y="652" />
              <mxPoint x="388" y="652" />
              <mxPoint x="388" y="680" />
            </Array>
          </mxGeometry>
        </mxCell>
        <mxCell id="MD52VDrp3i1lFAHG4hau-19" value="Administrative Networks" style="rounded=1;whiteSpace=wrap;html=1;strokeColor=#D32F2F;fillColor=#FFEBEE;arcSize=24;absoluteArcSize=1;strokeWidth=1.5;labelPosition=center;verticalLabelPosition=top;align=center;verticalAlign=bottom;" parent="1" vertex="1">
          <mxGeometry x="981" y="295" width="570" height="200" as="geometry" />
        </mxCell>
        <mxCell id="MD52VDrp3i1lFAHG4hau-20" value="" style="rounded=1;whiteSpace=wrap;html=1;strokeColor=#475E75;fillColor=#ffffff;arcSize=24;absoluteArcSize=1;imageWidth=64;imageHeight=64;strokeWidth=1.5;" parent="1" vertex="1">
          <mxGeometry x="991" y="302" width="550" height="183" as="geometry" />
        </mxCell>
        <mxCell id="MD52VDrp3i1lFAHG4hau-21" value="admin---169-145-152-0---21&lt;br/&gt;169.145.152.0/21" style="rounded=1;whiteSpace=wrap;html=1;fillColor=#FFEBEE;strokeColor=#D32F2F;fontStyle=1;fontSize=11;" parent="1" vertex="1">
          <mxGeometry x="1011" y="325" width="160" height="60" as="geometry" />
        </mxCell>
        <mxCell id="MD52VDrp3i1lFAHG4hau-22" value="admin---147-204-0-0---16&lt;br/&gt;147.204.0.0/16" style="rounded=1;whiteSpace=wrap;html=1;fillColor=#FFEBEE;strokeColor=#D32F2F;fontStyle=1;fontSize=11;" parent="1" vertex="1">
          <mxGeometry x="1191" y="325" width="160" height="60" as="geometry" />
        </mxCell>
        <mxCell id="MD52VDrp3i1lFAHG4hau-23" value="admin---169-145-192-0---18&lt;br/&gt;169.145.192.0/18" style="rounded=1;whiteSpace=wrap;html=1;fillColor=#FFEBEE;strokeColor=#D32F2F;fontStyle=1;fontSize=11;" parent="1" vertex="1">
          <mxGeometry x="1371" y="325" width="160" height="60" as="geometry" />
        </mxCell>
        <mxCell id="MD52VDrp3i1lFAHG4hau-24" value="admin---169-145-80-0---21&lt;br/&gt;169.145.80.0/21" style="rounded=1;whiteSpace=wrap;html=1;fillColor=#FFEBEE;strokeColor=#D32F2F;fontStyle=1;fontSize=11;" parent="1" vertex="1">
          <mxGeometry x="1011" y="405" width="160" height="60" as="geometry" />
        </mxCell>
        <mxCell id="MD52VDrp3i1lFAHG4hau-25" value="admin---169-145-28-0---24&lt;br/&gt;169.145.28.0/24" style="rounded=1;whiteSpace=wrap;html=1;fillColor=#FFEBEE;strokeColor=#D32F2F;fontStyle=1;fontSize=11;" parent="1" vertex="1">
          <mxGeometry x="1191" y="405" width="160" height="60" as="geometry" />
        </mxCell>
        <mxCell id="MD52VDrp3i1lFAHG4hau-26" value="Prostore" style="rounded=1;whiteSpace=wrap;html=1;strokeColor=#FF6F00;fillColor=#FFF3E0;arcSize=24;absoluteArcSize=1;strokeWidth=1.5;labelPosition=center;verticalLabelPosition=top;align=center;verticalAlign=bottom;" parent="1" vertex="1">
          <mxGeometry x="981" y="530" width="240" height="100" as="geometry" />
        </mxCell>
        <mxCell id="MD52VDrp3i1lFAHG4hau-27" value="" style="rounded=1;whiteSpace=wrap;html=1;strokeColor=#475E75;fillColor=#ffffff;arcSize=24;absoluteArcSize=1;imageWidth=64;imageHeight=64;strokeWidth=1.5;" parent="1" vertex="1">
          <mxGeometry x="991" y="537" width="220" height="83" as="geometry" />
        </mxCell>
        <mxCell id="MD52VDrp3i1lFAHG4hau-28" value="route-to-Spoke05ProdStore&lt;br/&gt;10.64.12.0/24" style="rounded=1;whiteSpace=wrap;html=1;fillColor=#FFF3E0;strokeColor=#FF6F00;fontStyle=1;fontSize=11;" parent="1" vertex="1">
          <mxGeometry x="1002" y="550" width="195" height="60" as="geometry" />
        </mxCell>
        <mxCell id="MD52VDrp3i1lFAHG4hau-29" value="Production Networks" style="rounded=1;whiteSpace=wrap;html=1;strokeColor=#1976D2;fillColor=#E3F2FD;arcSize=24;absoluteArcSize=1;strokeWidth=1.5;labelPosition=center;verticalLabelPosition=top;align=center;verticalAlign=bottom;" parent="1" vertex="1">
          <mxGeometry x="981" y="650" width="710" height="280" as="geometry" />
        </mxCell>
        <mxCell id="MD52VDrp3i1lFAHG4hau-30" value="" style="rounded=1;whiteSpace=wrap;html=1;strokeColor=#475E75;fillColor=#ffffff;arcSize=24;absoluteArcSize=1;imageWidth=64;imageHeight=64;strokeWidth=1.5;" parent="1" vertex="1">
          <mxGeometry x="991" y="660" width="690" height="260" as="geometry" />
        </mxCell>
        <mxCell id="MD52VDrp3i1lFAHG4hau-31" value="r-HEC44-FRO-Prod14&lt;br/&gt;10.64.14.0/24" style="rounded=1;whiteSpace=wrap;html=1;fillColor=#E3F2FD;strokeColor=#1976D2;fontStyle=1;fontSize=11;" parent="1" vertex="1">
          <mxGeometry x="1512" y="760" width="150" height="60" as="geometry" />
        </mxCell>
        <mxCell id="MD52VDrp3i1lFAHG4hau-32" value="r-HEC44-FRO-Prod07&lt;br/&gt;10.64.192.0/18" style="rounded=1;whiteSpace=wrap;html=1;fillColor=#E3F2FD;strokeColor=#1976D2;fontStyle=1;fontSize=11;" parent="1" vertex="1">
          <mxGeometry x="1002" y="680" width="150" height="60" as="geometry" />
        </mxCell>
        <mxCell id="MD52VDrp3i1lFAHG4hau-33" value="r-HEC44-FRO-Prod08&lt;br/&gt;10.64.8.0/24" style="rounded=1;whiteSpace=wrap;html=1;fillColor=#E3F2FD;strokeColor=#1976D2;fontStyle=1;fontSize=11;" parent="1" vertex="1">
          <mxGeometry x="1172" y="680" width="150" height="60" as="geometry" />
        </mxCell>
        <mxCell id="MD52VDrp3i1lFAHG4hau-34" value="r-HEC44-FRO-Prod09&lt;br/&gt;10.64.10.0/24" style="rounded=1;whiteSpace=wrap;html=1;fillColor=#E3F2FD;strokeColor=#1976D2;fontStyle=1;fontSize=11;" parent="1" vertex="1">
          <mxGeometry x="1342" y="680" width="150" height="60" as="geometry" />
        </mxCell>
        <mxCell id="MD52VDrp3i1lFAHG4hau-35" value="r-HEC44-FRO-Prod10&lt;br/&gt;10.64.11.0/24" style="rounded=1;whiteSpace=wrap;html=1;fillColor=#E3F2FD;strokeColor=#1976D2;fontStyle=1;fontSize=11;" parent="1" vertex="1">
          <mxGeometry x="1512" y="680" width="150" height="60" as="geometry" />
        </mxCell>
        <mxCell id="MD52VDrp3i1lFAHG4hau-36" value="r-HEC44-FRO-Prod11&lt;br/&gt;10.64.13.0/24" style="rounded=1;whiteSpace=wrap;html=1;fillColor=#E3F2FD;strokeColor=#1976D2;fontStyle=1;fontSize=11;" parent="1" vertex="1">
          <mxGeometry x="1002" y="760" width="150" height="60" as="geometry" />
        </mxCell>
        <mxCell id="MD52VDrp3i1lFAHG4hau-37" value="r-HEC44-FRO-Prod12&lt;br/&gt;10.64.1.0/24" style="rounded=1;whiteSpace=wrap;html=1;fillColor=#E3F2FD;strokeColor=#1976D2;fontStyle=1;fontSize=11;" parent="1" vertex="1">
          <mxGeometry x="1172" y="760" width="150" height="60" as="geometry" />
        </mxCell>
        <mxCell id="MD52VDrp3i1lFAHG4hau-38" value="r-HEC44-FRO-Prod13&lt;br/&gt;10.64.16.0/22" style="rounded=1;whiteSpace=wrap;html=1;fillColor=#E3F2FD;strokeColor=#1976D2;fontStyle=1;fontSize=11;" parent="1" vertex="1">
          <mxGeometry x="1342" y="760" width="150" height="60" as="geometry" />
        </mxCell>
        <mxCell id="MD52VDrp3i1lFAHG4hau-39" value="r-HEC44-FRO-Prod15&lt;br/&gt;10.0.0.0/8" style="rounded=1;whiteSpace=wrap;html=1;fillColor=#E3F2FD;strokeColor=#1976D2;fontStyle=1;fontSize=11;" parent="1" vertex="1">
          <mxGeometry x="1002" y="840" width="150" height="60" as="geometry" />
        </mxCell>
        <mxCell id="MD52VDrp3i1lFAHG4hau-40" value="r-HEC44-FRO-Prod16&lt;br/&gt;192.168.0.0/16" style="rounded=1;whiteSpace=wrap;html=1;fillColor=#E3F2FD;strokeColor=#1976D2;fontStyle=1;fontSize=11;" parent="1" vertex="1">
          <mxGeometry x="1172" y="840" width="150" height="60" as="geometry" />
        </mxCell>
        <mxCell id="MD52VDrp3i1lFAHG4hau-41" value="r-HEC44-FRO-Prod17&lt;br/&gt;139.2.160.0/21" style="rounded=1;whiteSpace=wrap;html=1;fillColor=#E3F2FD;strokeColor=#1976D2;fontStyle=1;fontSize=11;" parent="1" vertex="1">
          <mxGeometry x="1342" y="840" width="150" height="60" as="geometry" />
        </mxCell>
        <mxCell id="MD52VDrp3i1lFAHG4hau-42" value="r-HEC44-FRO-Prod18&lt;br/&gt;172.31.255.8/29" style="rounded=1;whiteSpace=wrap;html=1;fillColor=#E3F2FD;strokeColor=#1976D2;fontStyle=1;fontSize=11;" parent="1" vertex="1">
          <mxGeometry x="1512" y="840" width="150" height="60" as="geometry" />
        </mxCell>
        <mxCell id="MD52VDrp3i1lFAHG4hau-43" style="edgeStyle=orthogonalEdgeStyle;rounded=0;orthogonalLoop=1;jettySize=auto;html=1;strokeColor=#FF6F00;strokeWidth=2;endArrow=classic;startArrow=none;exitX=1;exitY=0.5;exitDx=0;exitDy=0;entryX=0;entryY=0.5;entryDx=0;entryDy=0;" parent="1" source="MD52VDrp3i1lFAHG4hau-1" target="MD52VDrp3i1lFAHG4hau-26" edge="1">
          <mxGeometry relative="1" as="geometry">
            <Array as="points" />
            <mxPoint x="770" y="1130" as="sourcePoint" />
            <mxPoint x="960" y="580" as="targetPoint" />
          </mxGeometry>
        </mxCell>
        <mxCell id="MD52VDrp3i1lFAHG4hau-44" style="edgeStyle=orthogonalEdgeStyle;rounded=0;orthogonalLoop=1;jettySize=auto;html=1;strokeColor=#D32F2F;strokeWidth=2;endArrow=classic;startArrow=none;exitX=1;exitY=0.25;exitDx=0;exitDy=0;entryX=0;entryY=0.5;entryDx=0;entryDy=0;" parent="1" source="MD52VDrp3i1lFAHG4hau-1" target="MD52VDrp3i1lFAHG4hau-19" edge="1">
          <mxGeometry relative="1" as="geometry">
            <Array as="points" />
            <mxPoint x="500" y="350" as="sourcePoint" />
            <mxPoint x="1010" y="352" as="targetPoint" />
          </mxGeometry>
        </mxCell>
        <mxCell id="MD52VDrp3i1lFAHG4hau-45" style="edgeStyle=orthogonalEdgeStyle;rounded=0;orthogonalLoop=1;jettySize=auto;html=1;strokeColor=#1976D2;strokeWidth=2;endArrow=classic;startArrow=none;entryX=0;entryY=0.5;entryDx=0;entryDy=0;exitX=1;exitY=0.75;exitDx=0;exitDy=0;" parent="1" source="MD52VDrp3i1lFAHG4hau-1" target="MD52VDrp3i1lFAHG4hau-29" edge="1">
          <mxGeometry relative="1" as="geometry">
            <mxPoint x="1095" y="1000" as="sourcePoint" />
            <mxPoint x="870" y="800" as="targetPoint" />
          </mxGeometry>
        </mxCell>
        <mxCell id="MD52VDrp3i1lFAHG4hau-46" value="&lt;font size=&quot;1&quot;&gt;&lt;b&gt;Firewall&lt;/b&gt;&lt;/font&gt;" style="rounded=1;whiteSpace=wrap;html=1;arcSize=50;strokeColor=#de5353;fillColor=default;strokeWidth=1.5;fontColor=#de5353;rotation=90;" parent="1" vertex="1">
          <mxGeometry x="219.75" y="587.25" width="705" height="16" as="geometry" />
        </mxCell>
      </root>
    </mxGraphModel>
  </diagram>
</mxfile>
